<?xml version="1.0" standalone="no"?>
<!DOCTYPE svg PUBLIC "-//W3C//DTD SVG 20010904//EN"
 "http://www.w3.org/TR/2001/REC-SVG-20010904/DTD/svg10.dtd">
<svg version="1.0" xmlns="http://www.w3.org/2000/svg"
 width="737.000000pt" height="1280.000000pt" viewBox="0 0 737.000000 1280.000000"
 preserveAspectRatio="xMidYMid meet">
<metadata>
Created by potrace 1.15, written by Peter Selinger 2001-2017
</metadata>
<g transform="translate(0.000000,1280.000000) scale(0.100000,-0.100000)"
fill="#000000" stroke="none">
<path d="M4390 12529 c-14 -6 -68 -12 -120 -14 -98 -2 -194 -29 -220 -60 -7
-8 -18 -15 -24 -15 -18 0 -139 -127 -132 -138 3 -6 1 -14 -5 -18 -8 -5 -9 -3
-4 6 5 8 4 11 -3 6 -6 -4 -9 -12 -6 -20 3 -7 -11 -35 -29 -62 -72 -105 -107
-197 -122 -325 -7 -61 3 -161 15 -154 4 3 11 -11 14 -31 4 -19 9 -43 12 -52 2
-9 -3 -3 -11 13 l-16 30 6 -35 c28 -169 58 -324 71 -370 23 -76 121 -258 151
-277 13 -9 33 -32 43 -52 11 -20 19 -30 20 -23 0 7 -7 27 -16 43 -8 17 -14 39
-12 50 2 15 14 4 51 -47 27 -36 46 -72 43 -80 -3 -7 4 -20 15 -28 25 -17 14
-26 -42 -36 -30 -6 -43 -3 -59 12 -15 14 -29 18 -50 13 -21 -5 -31 -2 -39 12
-6 10 -11 13 -11 6 0 -8 -19 -10 -62 -6 -47 4 -69 11 -88 29 -14 12 -46 28
-72 34 -41 11 -52 10 -73 -4 -13 -9 -42 -16 -64 -16 -22 0 -84 -11 -137 -24
-149 -38 -276 -122 -348 -231 -21 -30 -53 -66 -72 -78 -48 -34 -174 -173 -190
-213 -8 -19 -12 -44 -9 -57 3 -13 -2 -30 -13 -42 -30 -35 -125 -111 -187 -151
-33 -20 -91 -71 -130 -111 -38 -40 -75 -73 -82 -73 -11 0 -16 24 -28 133 -5
47 -4 57 9 57 8 0 19 8 25 17 8 16 14 16 44 5 44 -16 105 -18 118 -5 7 7 3 16
-14 29 l-24 19 24 18 c29 22 29 41 2 60 -20 14 -20 16 -4 41 21 32 9 52 -39
64 -27 7 -31 12 -28 38 3 24 -2 33 -23 42 -20 9 -24 16 -17 29 16 30 24 227
12 271 -6 26 -26 56 -54 82 -31 29 -48 56 -57 89 -6 25 -20 63 -31 83 -10 21
-34 104 -53 185 -19 82 -49 193 -67 247 -35 107 -56 131 -95 115 -20 -7 -23
-16 -23 -56 0 -26 7 -73 15 -103 8 -30 15 -72 15 -92 0 -21 9 -70 19 -110 11
-40 21 -90 24 -110 5 -36 5 -36 -27 -31 -39 6 -72 -9 -81 -37 -5 -15 -12 -18
-34 -14 -39 8 -67 -10 -81 -51 -9 -26 -17 -35 -34 -35 -54 0 -78 -74 -53 -161
71 -245 87 -342 59 -365 -11 -8 -12 -18 -4 -48 9 -32 8 -38 -6 -43 -50 -15
-72 -27 -74 -37 0 -6 -2 -15 -2 -21 -1 -5 -10 -23 -20 -38 -16 -24 -17 -31 -6
-52 7 -14 21 -27 31 -30 11 -4 15 -12 12 -26 -8 -28 12 -39 71 -39 l48 0 -6
-67 c-4 -38 -12 -102 -18 -143 -6 -41 -11 -136 -11 -210 -1 -110 3 -149 21
-213 38 -135 95 -220 165 -246 50 -19 142 -13 207 13 80 33 238 127 335 199
105 79 105 79 105 24 0 -91 18 -149 65 -209 l45 -58 0 -248 c-1 -290 -12 -371
-65 -480 -29 -57 -49 -83 -93 -118 -31 -24 -68 -47 -82 -50 -42 -9 -71 -24
-66 -32 6 -10 -43 -58 -94 -92 -66 -45 -138 -112 -212 -198 -102 -118 -255
-321 -324 -429 -31 -48 -73 -113 -94 -143 -73 -107 -119 -189 -313 -561 -108
-206 -217 -427 -242 -490 -26 -63 -57 -125 -70 -139 -12 -14 -30 -40 -39 -57
-9 -18 -35 -56 -59 -85 -70 -87 -92 -121 -80 -125 7 -3 2 -18 -13 -40 -13 -20
-24 -47 -24 -60 0 -23 1 -23 29 -9 16 9 31 13 34 10 3 -3 19 2 36 10 39 21 38
22 33 -19 -3 -23 0 -35 8 -35 7 0 10 -7 6 -15 -3 -8 -1 -15 4 -15 5 0 7 -7 4
-15 -4 -8 -1 -15 6 -15 6 0 9 -4 6 -9 -9 -13 19 -21 51 -14 15 3 36 6 45 7 10
1 29 13 43 26 18 17 25 19 26 9 5 -54 8 -64 18 -67 6 -2 9 -8 5 -13 -3 -5 0
-9 6 -9 6 0 8 -5 5 -10 -10 -17 20 -39 50 -36 15 2 31 10 36 17 5 8 9 10 9 5
0 -5 10 -1 21 10 l22 19 -5 -47 c-6 -54 3 -54 32 0 l19 37 1 -36 c0 -20 3 -38
6 -42 6 -6 54 20 65 37 4 5 11 6 17 2 5 -3 20 4 33 15 35 30 34 8 -1 -55 -18
-31 -40 -89 -50 -129 l-19 -72 35 39 c29 34 34 36 34 18 0 -27 20 -72 32 -72
6 0 8 -6 6 -12 -3 -7 1 -19 9 -26 10 -11 19 -11 48 -1 19 7 35 17 35 21 0 4 7
8 15 8 8 0 19 9 25 20 11 21 40 17 40 -6 0 -8 16 -30 35 -50 31 -31 37 -33 56
-22 11 7 32 34 45 61 27 52 34 58 33 25 -1 -36 22 -118 32 -118 5 0 12 7 15
15 3 8 14 17 25 20 10 4 25 18 33 33 l14 27 7 -28 c4 -15 16 -32 27 -38 11 -6
17 -13 14 -16 -7 -7 13 -26 42 -42 20 -11 26 -10 43 10 10 12 19 19 19 14 0
-4 7 -2 15 5 9 7 18 10 21 7 3 -3 17 -2 31 4 21 8 26 5 37 -23 l14 -31 7 40
c3 23 13 49 20 60 12 17 14 16 20 -12 9 -36 56 -205 62 -222 3 -7 -2 -13 -12
-13 -9 0 -14 -4 -11 -8 3 -5 -6 -25 -19 -44 -25 -38 -24 -48 8 -48 15 0 18 -5
13 -24 -3 -12 -2 -26 1 -30 12 -12 14 -96 3 -96 -14 0 0 -53 17 -63 7 -5 11
-12 8 -18 -4 -5 -1 -9 4 -9 6 0 11 -7 11 -15 0 -9 9 -15 25 -15 30 0 40 -21
61 -128 25 -131 18 -325 -18 -529 -41 -231 -44 -409 -9 -583 24 -121 116 -448
200 -713 60 -185 103 -344 130 -478 21 -102 23 -136 16 -234 -3 -33 -9 -132
-14 -220 -5 -88 -9 -161 -10 -163 -1 -2 -6 0 -12 4 -9 5 -10 -14 -6 -72 2 -43
-1 -133 -9 -199 -9 -73 -14 -214 -13 -361 0 -303 -3 -297 194 -374 92 -36 244
-53 345 -37 30 4 71 10 90 13 19 3 41 6 48 6 6 1 12 6 13 12 2 34 18 -38 18
-84 1 -30 8 -68 16 -83 9 -18 10 -25 2 -20 -7 4 -7 0 2 -10 8 -10 9 -17 3 -17
-6 0 -10 -9 -9 -19 0 -11 6 -19 12 -18 5 1 9 -6 7 -17 -2 -10 1 -15 6 -12 6 3
12 0 15 -8 3 -8 22 -20 41 -27 20 -7 36 -16 36 -21 0 -24 160 -36 260 -19 174
30 224 51 306 130 38 36 87 88 109 114 22 27 52 63 67 80 15 18 28 35 28 39 0
4 6 13 13 20 24 27 149 272 188 371 12 31 26 57 30 57 4 0 6 11 5 25 -2 13 0
22 4 20 4 -2 13 8 21 23 7 15 20 36 29 46 13 17 13 18 0 12 -9 -5 -8 -2 2 7
10 8 15 17 11 20 -3 4 -2 7 3 7 5 0 10 8 10 18 1 29 8 46 24 59 8 7 11 13 7
13 -5 0 2 14 14 32 13 17 17 28 11 24 -7 -4 -1 13 13 38 14 25 25 56 25 70 0
17 5 26 16 26 12 0 15 7 12 25 -3 15 -1 22 5 18 6 -4 8 4 5 21 -4 21 -3 24 8
15 17 -14 18 -5 4 21 -8 16 -7 18 4 14 20 -8 29 12 16 36 -6 12 -7 20 -1 20 5
0 12 -6 15 -12 3 -7 3 -3 0 10 -4 15 0 24 10 28 9 3 16 10 16 15 0 4 -7 6 -15
3 -23 -9 -18 11 8 30 12 9 16 14 8 10 -9 -4 -12 -2 -9 7 3 8 11 13 17 11 7 -1
10 2 6 8 -4 6 -1 18 6 26 16 19 20 44 11 58 -13 21 -10 36 9 46 10 6 19 16 19
23 0 8 -3 8 -9 -2 -7 -10 -10 -10 -16 -1 -5 8 -1 16 9 22 9 5 16 19 15 31 l0
22 -11 -22 c-6 -13 -18 -23 -27 -23 -14 0 -14 2 -1 10 12 8 11 11 -8 16 -17 5
-21 11 -17 28 4 14 3 17 -3 8 -5 -7 -18 -14 -30 -15 -11 0 -19 -4 -16 -8 8
-14 -8 -38 -22 -32 -9 3 -14 0 -12 -8 2 -8 -4 -13 -14 -13 -10 1 -15 -2 -13
-7 3 -5 -3 -14 -14 -20 -10 -7 -17 -19 -13 -27 4 -11 0 -13 -17 -7 -20 6 -22
4 -16 -14 3 -12 3 -20 -2 -19 -12 4 -61 -36 -65 -53 -2 -7 -16 -21 -33 -30
-16 -9 -31 -26 -33 -38 -2 -12 -11 -25 -20 -28 -19 -7 -48 -44 -45 -55 2 -4
-4 -5 -13 -1 -8 3 -14 2 -13 -3 3 -20 -2 -34 -12 -34 -14 0 -68 -57 -61 -65 3
-3 0 -5 -6 -5 -6 0 -9 -8 -5 -17 5 -16 4 -15 -9 1 -14 18 -16 18 -29 -13 -8
-18 -24 -34 -36 -37 -13 -4 -20 -10 -17 -15 3 -5 -2 -9 -10 -9 -8 0 -21 -10
-27 -22 -7 -13 -25 -34 -40 -47 -16 -13 -26 -27 -23 -32 3 -5 -2 -6 -10 -3
-10 4 -16 -4 -21 -26 -4 -17 -9 -29 -12 -27 -2 3 -8 92 -12 198 -9 212 -15
236 -77 320 -32 43 -34 52 -34 123 0 42 4 76 8 76 5 0 16 16 25 35 9 20 27 40
39 46 23 9 23 10 1 5 -13 -2 -24 2 -27 11 -3 8 -2 11 3 8 12 -7 42 35 35 47
-3 5 -2 14 3 21 4 7 8 21 8 32 0 16 -6 20 -33 17 -28 -2 -32 1 -32 23 0 14 27
202 61 418 79 510 80 512 80 652 1 156 -20 245 -116 485 -86 215 -110 319
-102 430 7 87 57 264 75 266 6 1 13 2 15 3 1 2 13 4 26 7 34 6 55 35 36 50 -8
6 -15 16 -15 22 0 6 -9 16 -19 22 -17 9 -18 15 -9 47 6 21 17 42 24 46 8 5 12
12 9 18 -4 5 4 9 17 9 37 0 50 19 29 42 -10 10 -24 16 -32 13 -8 -3 -19 3 -24
12 -8 14 -1 56 30 172 l41 154 27 -27 26 -26 26 24 c14 13 25 28 25 35 0 6 4
11 9 11 4 0 13 15 18 33 l10 32 19 -32 c10 -18 25 -33 32 -33 6 0 12 -5 12
-11 0 -5 5 -7 10 -4 6 3 10 1 10 -4 0 -6 6 -11 14 -11 8 0 16 -5 18 -11 2 -6
18 2 35 19 18 16 29 32 26 36 -3 3 1 6 10 6 10 0 18 5 18 10 1 6 3 15 4 20 1
6 3 17 4 25 2 21 19 19 26 -4 3 -11 16 -23 28 -27 12 -4 24 -9 27 -13 3 -3 20
-14 37 -23 32 -16 33 -16 48 5 8 11 22 43 31 69 l16 49 43 -26 c24 -14 46 -25
50 -25 4 0 6 17 5 38 -1 20 -2 49 -1 65 1 25 3 26 24 15 12 -7 25 -17 29 -23
4 -5 8 -6 8 -1 0 5 8 0 18 -12 18 -20 19 -20 45 -3 15 10 24 21 20 24 -3 4 -2
7 4 7 5 0 15 11 21 25 15 33 26 32 63 -7 l31 -33 18 23 c17 21 50 22 50 1 0
-5 7 -9 15 -9 9 0 15 9 15 24 0 36 15 40 57 14 54 -33 91 -35 82 -5 0 1 5 16
12 32 6 17 11 43 10 58 -1 26 0 27 14 13 13 -13 99 -56 111 -56 16 0 -4 72
-40 147 -45 93 -104 169 -141 183 -21 8 -88 196 -186 520 -132 438 -196 606
-358 943 -69 145 -77 167 -60 167 14 0 19 -7 19 -25 0 -20 4 -24 21 -22 23 4
58 43 59 66 0 8 10 29 22 47 17 25 28 32 44 28 23 -6 68 38 85 83 5 13 15 23
22 23 20 0 133 48 267 112 63 31 187 86 275 123 225 95 363 162 485 234 246
147 268 200 185 450 -37 110 -159 355 -241 482 -58 92 -112 162 -199 259 -83
94 -91 110 -94 189 -2 85 -34 142 -138 252 -38 39 -48 60 -74 148 -33 116 -49
150 -111 238 -79 113 -156 192 -217 223 -91 45 -178 72 -216 64 -34 -6 -57 9
-30 20 13 5 14 10 5 27 -6 11 -18 18 -25 15 -9 -3 -35 22 -69 67 -61 80 -82
141 -72 209 4 24 9 73 12 111 4 37 10 67 14 67 4 0 15 17 26 38 10 20 39 60
63 87 24 28 58 80 74 118 31 70 49 89 21 21 -14 -32 -14 -36 -1 -26 15 13 29
63 33 117 1 17 9 57 18 90 9 33 16 83 17 110 l2 50 9 -63 c16 -105 20 -62 8
80 -15 175 -40 296 -98 475 -58 179 -138 318 -247 428 -99 101 -171 135 -296
140 -53 2 -105 0 -119 -6z m-633 -641 c-3 -8 -6 -5 -6 6 -1 11 2 17 5 13 3 -3
4 -12 1 -19z m122 -600 c6 -18 7 -28 2 -23 -10 12 -25 55 -18 55 3 0 10 -15
16 -32z m82 -211 c11 -22 18 -41 15 -44 -2 -3 -19 24 -36 58 -32 66 -14 53 21
-14z m-1561 -707 c0 -5 -5 -10 -11 -10 -5 0 -7 5 -4 10 3 6 8 10 11 10 2 0 4
-4 4 -10z m10 -30 c0 -5 -4 -10 -10 -10 -5 0 -10 5 -10 10 0 6 5 10 10 10 6 0
10 -4 10 -10z m41 -4 c5 3 9 0 9 -6 0 -15 -23 -7 -26 8 -1 7 0 8 3 2 2 -5 9
-8 14 -4z m3 -106 c-5 -5 -9 4 -10 23 -1 30 -1 30 9 9 6 -14 7 -26 1 -32z
m-547 -12 c-3 -8 -6 -5 -6 6 -1 11 2 17 5 13 3 -3 4 -12 1 -19z m537 -34 c3
-8 2 -12 -4 -9 -6 3 -10 10 -10 16 0 14 7 11 14 -7z m-574 -19 c11 -13 10 -14
-4 -9 -9 3 -16 10 -16 15 0 13 6 11 20 -6z m17 -47 c-3 -8 -6 -5 -6 6 -1 11 2
17 5 13 3 -3 4 -12 1 -19z m3252 -1013 c119 -63 135 -78 229 -220 36 -55 88
-125 115 -155 27 -30 59 -78 72 -107 13 -28 34 -57 47 -63 26 -14 100 -90 87
-90 -5 0 -71 -42 -147 -93 -197 -133 -376 -244 -542 -336 -137 -76 -146 -79
-168 -65 -12 8 -27 12 -31 9 -5 -3 -22 0 -37 5 -28 11 -73 -4 -116 -38 -11
-10 -22 -11 -35 -4 -12 7 -28 6 -48 -2 -29 -12 -32 -10 -73 31 -64 63 -95 146
-90 243 3 72 2 75 -20 78 -49 7 -101 -77 -102 -161 0 -44 -2 -47 -19 -37 -33
17 -64 79 -63 125 1 71 75 190 243 392 38 45 69 86 69 92 0 13 101 138 288
358 l146 171 44 -39 c24 -21 92 -64 151 -94z m-3901 -3284 c3 -8 -1 -12 -9 -9
-7 2 -15 10 -17 17 -3 8 1 12 9 9 7 -2 15 -10 17 -17z m3839 -337 c-3 -3 -12
-4 -19 -1 -8 3 -5 6 6 6 11 1 17 -2 13 -5z m-1627 -114 c0 -5 -5 -10 -11 -10
-5 0 -7 5 -4 10 3 6 8 10 11 10 2 0 4 -4 4 -10z m-10 -49 c0 -5 -9 -11 -19
-14 -14 -3 -18 -1 -14 9 6 15 33 19 33 5z m8 -72 c-2 -6 -8 -10 -13 -10 -5 0
-11 4 -13 10 -2 6 4 11 13 11 9 0 15 -5 13 -11z m-111 -71 c0 -7 3 -23 7 -35
5 -16 3 -23 -6 -23 -26 0 -37 21 -26 46 12 26 25 32 25 12z m49 -87 c-4 -5 7
-15 24 -23 l30 -13 0 -92 c0 -57 -4 -93 -10 -93 -6 0 -13 7 -16 15 -4 8 -17
15 -29 15 -29 0 -42 18 -20 26 14 6 14 8 -1 25 -16 18 -16 20 2 34 10 8 22 15
27 15 10 0 -3 54 -15 58 -12 5 -10 42 3 42 5 0 8 -4 5 -9z m12 -348 l3 -60
-41 -12 c-39 -11 -57 -41 -25 -41 14 0 19 -11 16 -36 -1 -7 9 -14 22 -18 23
-5 24 -9 40 -243 18 -266 30 -324 107 -536 52 -145 61 -193 80 -435 6 -73 28
-219 50 -326 77 -381 131 -793 133 -1006 1 -151 -7 -202 -29 -193 -8 3 -14 -1
-14 -11 0 -9 -7 -16 -15 -16 -8 0 -15 -7 -15 -15 0 -8 -7 -15 -15 -15 -8 0
-15 -5 -15 -12 0 -13 -59 -68 -72 -68 -5 0 -8 -7 -8 -15 0 -8 -9 -19 -21 -25
-27 -15 -59 -47 -59 -60 0 -5 -7 -10 -15 -10 -8 0 -15 -5 -15 -12 0 -6 -18
-29 -40 -49 -22 -21 -40 -43 -40 -50 0 -7 -3 -9 -7 -6 -3 4 -10 62 -14 129
-20 334 -30 433 -49 473 -28 58 -48 156 -60 286 -13 153 -13 551 1 779 19 302
16 483 -10 660 -25 167 -24 256 4 380 9 36 19 153 24 260 11 238 16 269 46
280 20 8 32 40 14 40 -4 0 -2 11 4 25 19 39 32 24 35 -42z m854 -2537 c7 4 8
2 4 -5 -4 -6 -12 -9 -17 -6 -5 4 -9 0 -10 -7 0 -7 -4 -4 -9 7 -13 31 -11 38 6
21 8 -9 20 -13 26 -10z m-55 -33 c-3 -10 -5 -2 -5 17 0 19 2 27 5 18 2 -10 2
-26 0 -35z m-10 -70 c-3 -10 -5 -4 -5 12 0 17 2 24 5 18 2 -7 2 -21 0 -30z
m796 -112 c3 -13 1 -18 -9 -14 -7 2 -10 11 -7 19 7 19 10 18 16 -5z"/>

</g>
</svg>
